<svg width="524" height="54" viewBox="0 0 524 54" fill="none" xmlns="http://www.w3.org/2000/svg">
<path d="M0.4025 7.76093C1.7625 7.76093 2.92625 7.88468 3.895 8.13093C10.43 7.88468 15.6237 7.76093 19.4775 7.76093H28.0725L30.0225 9.92593C30.1038 9.45093 30.3612 9.21343 30.795 9.21343L31.195 9.92593V25.5684H30.3925C29.0938 22.7034 28.445 20.7659 28.445 19.7559V18.3034C27.1462 18.3034 25.8481 16.6028 24.55 13.2009H20.2825V31.7209C20.2825 33.0609 20.1481 34.7622 19.88 36.8234C20.1481 37.2353 20.2825 37.7197 20.2825 38.2759C20.0138 41.5547 19.88 43.8528 19.88 45.1709C19.88 47.2947 21.7037 49.3559 25.3525 51.3559V52.0659H5.8425V51.6959C8.95562 49.5509 10.5125 47.8603 10.5125 46.6234C10.5125 46.0672 10.6462 45.5828 10.915 45.1709C10.6462 42.5128 10.5125 40.2147 10.5125 38.2759V37.9059C10.5125 33.8659 10.9037 29.0222 11.6875 23.3734C10.9037 19.0253 10.5125 15.6347 10.5125 13.2009H6.6175C5.68875 14.1297 3.6175 18.2522 0.4025 25.5684H0V10.2959L0.4025 7.76093Z" fill="#F8F2EA"/>
<path d="M32.4621 7.72842H36.7921C39.3271 7.72842 41.9753 7.8528 44.7371 8.10092C46.0153 7.8528 47.2209 7.72842 48.3546 7.72842C59.2178 7.72842 64.6496 11.8203 64.6496 20.0034C64.6496 21.6734 63.8046 23.6109 62.1146 25.8159C59.7428 29.4247 57.3309 31.2284 54.8796 31.2284V31.5984C57.7646 36.4834 59.2071 39.7303 59.2071 41.3384C61.1453 44.6572 63.5571 47.4284 66.4421 49.6534C66.4421 50.1484 66.6784 50.3959 67.1521 50.3959V50.7359C67.1521 51.3959 65.7096 51.8803 62.8246 52.1884C60.5578 51.9422 58.3934 51.8184 56.3321 51.8184C50.1484 40.5853 46.6546 34.5672 45.8496 33.7634L46.1896 35.5559V47.1184C48.4159 49.7784 49.8696 51.1084 50.5496 51.1084V51.8184H43.3146C42.8209 51.8184 42.5746 51.4578 42.5746 50.7359C41.3359 51.4578 38.3259 51.9422 33.5446 52.1884C33.0715 51.9422 32.7109 51.8184 32.4621 51.8184V51.4784L37.1621 46.7784V26.5284L37.5346 24.3634C37.2859 23.9522 37.1621 23.3434 37.1621 22.5384V13.8834C37.1621 12.6253 35.5953 10.6978 32.4621 8.10092V7.72842ZM45.8496 13.5109L46.1896 14.2234V26.5284L46.9321 26.1559H48.3546C53.1778 26.1559 55.5896 23.9922 55.5896 19.6634C55.5896 15.3153 52.7034 13.1409 46.9321 13.1409H46.5621L45.8496 13.5109Z" fill="#F8F2EA"/>
<path d="M66.0078 7.91592H84.2203L79.4878 12.6459V28.6909C79.0141 30.4228 78.7778 31.3922 78.7778 31.5984V33.0509C78.7778 34.1028 79.0141 35.0822 79.4878 35.9884C79.4878 36.5034 79.3641 37.8328 79.1178 39.9759C79.3641 43.6247 79.4878 46.3047 79.4878 48.0159C81.6728 49.2328 82.7653 50.5622 82.7653 52.0034L82.0553 52.3759H66.0078V52.0034L70.7378 47.2734V34.8759C70.7378 34.6278 70.6141 34.5034 70.3678 34.5034L70.7378 33.7934V14.8409C70.7378 12.9028 69.2853 10.8409 66.3803 8.65592L66.0078 7.91592Z" fill="#F8F2EA"/>
<path d="M84.0963 7.76093H88.7938C94.1538 7.76093 98.2451 8.38968 101.069 9.64593C106.717 8.38968 110.799 7.76093 113.314 7.76093V25.6609C112.922 25.6609 110.098 21.8897 104.841 14.3459H98.2238V27.5484C101.379 26.2903 102.956 25.3522 102.956 24.7334C105.469 25.6822 106.726 26.6203 106.726 27.5484V37.9359C103.469 34.7828 100.635 33.2059 98.2238 33.2059V43.5934C98.2238 45.8622 99.4813 48.3772 101.996 51.1384L97.2963 52.0659H84.0963V51.1384L87.8663 46.4084V34.1634C87.8663 29.0934 88.1751 23.1159 88.7938 16.2309C88.6501 15.1597 87.0845 12.6453 84.0963 8.68843V7.76093Z" fill="#F8F2EA"/>
<path d="M129.357 7.76093H134.892C143.736 7.76093 148.971 13.9134 150.6 26.2184V30.8259C150.6 38.3697 148.446 43.2953 144.137 45.6034C144.137 48.4903 140.746 50.6447 133.965 52.0659C123.66 52.0659 117.816 44.3778 116.435 29.0009C116.435 20.6747 120.124 14.2128 127.502 9.61593C127.709 8.37968 128.327 7.76093 129.357 7.76093ZM127.502 21.6109V35.4634C127.502 42.2234 129.966 45.6034 134.892 45.6034C137.964 45.6034 139.809 40.9872 140.427 31.7534V27.1459C140.427 17.9128 137.964 13.2959 133.037 13.2959C129.347 14.8409 127.502 17.6128 127.502 21.6109ZM133.037 24.3634H133.965C134.79 24.3634 136.336 25.9097 138.602 29.0009V29.8984C136.129 32.9903 134.892 35.1434 134.892 36.3584H133.965C132.996 36.3584 131.151 33.9059 128.43 29.0009L133.037 24.3634Z" fill="#F8F2EA"/>
<path d="M151.649 7.72842H155.979C158.514 7.72842 161.162 7.8528 163.924 8.10092C165.202 7.8528 166.407 7.72842 167.541 7.72842C178.404 7.72842 183.836 11.8203 183.836 20.0034C183.836 21.6734 182.991 23.6109 181.301 25.8159C178.929 29.4247 176.517 31.2284 174.066 31.2284V31.5984C176.951 36.4834 178.394 39.7303 178.394 41.3384C180.332 44.6572 182.744 47.4284 185.629 49.6534C185.629 50.1484 185.865 50.3959 186.339 50.3959V50.7359C186.339 51.3959 184.896 51.8803 182.011 52.1884C179.744 51.9422 177.58 51.8184 175.519 51.8184C169.335 40.5853 165.841 34.5672 165.036 33.7634L165.376 35.5559V47.1184C167.602 49.7784 169.056 51.1084 169.736 51.1084V51.8184H162.501C162.007 51.8184 161.761 51.4578 161.761 50.7359C160.522 51.4578 157.512 51.9422 152.731 52.1884C152.258 51.9422 151.897 51.8184 151.649 51.8184V51.4784L156.349 46.7784V26.5284L156.721 24.3634C156.472 23.9522 156.349 23.3434 156.349 22.5384V13.8834C156.349 12.6253 154.782 10.6978 151.649 8.10092V7.72842ZM165.036 13.5109L165.376 14.2234V26.5284L166.119 26.1559H167.541C172.364 26.1559 174.776 23.9922 174.776 19.6634C174.776 15.3153 171.89 13.1409 166.119 13.1409H165.749L165.036 13.5109Z" fill="#F8F2EA"/>
<path d="M198.427 7.76095C203.58 7.10095 207.652 7.84282 210.642 9.98595C212.145 8.87282 213.453 8.31595 214.567 8.31595V24.2709C209.992 17.3459 206.086 13.6459 202.849 13.1709V13.3259C202.603 13.3059 202.355 13.2959 202.107 13.2959C198.417 14.8409 196.572 17.6128 196.572 21.6109V35.4634C196.572 42.2234 199.035 45.6035 203.962 45.6035H204.087V45.6959C207.013 44.4597 210.414 40.9047 214.289 35.0309V50.9834C213.176 50.9834 211.867 50.4272 210.362 49.3134C207.58 50.4072 205.488 51.2422 204.087 51.8184C203.735 51.9022 203.384 51.9847 203.034 52.0659C192.729 52.0659 186.886 44.3778 185.504 29.0009C185.504 20.6747 189.193 14.2128 196.572 9.61595C196.778 8.3797 197.397 7.76095 198.427 7.76095Z" fill="#F8F2EA"/>
<path d="M215.804 7.76093H222.729C224.089 7.8228 224.769 8.0703 224.769 8.50343C226.274 8.2553 227.367 8.13093 228.047 8.13093C229.798 8.13093 231.839 8.36843 234.169 8.84343C234.334 8.12218 235.416 7.76093 237.414 7.76093H245.577C245.577 8.25593 245.711 8.50343 245.979 8.50343L245.577 9.21343V22.7259L245.979 25.2909L245.174 25.6309C240.929 17.5097 238.477 13.3772 237.817 13.2334H230.489V26.7434L231.294 26.3734H232.932L233.767 26.7434C234.013 26.0634 235.507 25.2084 238.249 24.1784H239.054V24.5484C239.054 26.3634 238.92 30.6203 238.652 37.3184C238.92 37.7922 239.054 38.1628 239.054 38.4309L233.334 32.2159H230.489V46.8109C230.696 46.8109 231.51 46.9347 232.932 47.1809C235.735 46.9347 237.363 46.6872 237.817 46.4384C237.817 46.6872 237.961 46.8109 238.249 46.8109C239.527 43.6559 240.888 42.0784 242.332 42.0784V41.7084C242.332 40.8834 242.187 40.2753 241.899 39.8834C242.991 35.6584 244.217 33.1028 245.577 32.2159C245.577 34.4009 245.711 35.4934 245.979 35.4934L245.577 36.2359V51.2009L245.979 51.9109L245.174 52.2834H237.014C236.746 52.2834 236.612 52.4066 236.612 52.6534L235.777 52.2834H230.489L228.449 51.9109V52.2834L227.644 51.9109C226.491 51.9109 222.544 52.1584 215.804 52.6534L215.402 51.9109C215.402 51.6847 217.031 50.2309 220.287 47.5509V37.3184C220.287 32.5984 220.699 28.4659 221.524 24.9209C220.699 22.3228 220.287 20.1272 220.287 18.3334V12.4909L215.804 8.50343V7.76093Z" fill="#F8F2EA"/>
<path d="M348.436 7.72842H352.766C355.301 7.72842 357.949 7.8528 360.711 8.10092C361.989 7.8528 363.195 7.72842 364.329 7.72842C375.192 7.72842 380.624 11.8203 380.624 20.0034C380.624 21.6734 379.779 23.6109 378.089 25.8159C375.717 29.4247 373.305 31.2284 370.854 31.2284V31.5984C373.739 36.4834 375.181 39.7303 375.181 41.3384C377.119 44.6572 379.531 47.4284 382.416 49.6534C382.416 50.1484 382.652 50.3959 383.126 50.3959V50.7359C383.126 51.3959 381.684 51.8803 378.799 52.1884C376.532 51.9422 374.367 51.8184 372.306 51.8184C366.122 40.5853 362.629 34.5672 361.824 33.7634L362.164 35.5559V47.1184C364.39 49.7784 365.844 51.1084 366.524 51.1084V51.8184H359.289C358.795 51.8184 358.549 51.4578 358.549 50.7359C357.31 51.4578 354.3 51.9422 349.519 52.1884C349.045 51.9422 348.685 51.8184 348.436 51.8184V51.4784L353.136 46.7784V26.5284L353.509 24.3634C353.26 23.9522 353.136 23.3434 353.136 22.5384V13.8834C353.136 12.6253 351.569 10.6978 348.436 8.10092V7.72842ZM361.824 13.5109L362.164 14.2234V26.5284L362.906 26.1559H364.329C369.152 26.1559 371.564 23.9922 371.564 19.6634C371.564 15.3153 368.677 13.1409 362.906 13.1409H362.536L361.824 13.5109Z" fill="#F8F2EA"/>
<path d="M381.674 7.76093H388.599C389.959 7.8228 390.639 8.0703 390.639 8.50343C392.144 8.2553 393.237 8.13093 393.917 8.13093C395.668 8.13093 397.709 8.36843 400.039 8.84343C400.204 8.12218 401.286 7.76093 403.284 7.76093H411.447C411.447 8.25593 411.581 8.50343 411.849 8.50343L411.447 9.21343V22.7259L411.849 25.2909L411.044 25.6309C406.799 17.5097 404.347 13.3772 403.687 13.2334H396.359V26.7434L397.164 26.3734H398.802L399.637 26.7434C399.883 26.0634 401.377 25.2084 404.119 24.1784H404.924V24.5484C404.924 26.3634 404.79 30.6203 404.522 37.3184C404.79 37.7922 404.924 38.1628 404.924 38.4309L399.204 32.2159H396.359V46.8109C396.566 46.8109 397.38 46.9347 398.802 47.1809C401.605 46.9347 403.233 46.6872 403.687 46.4384C403.687 46.6872 403.831 46.8109 404.119 46.8109C405.397 43.6559 406.758 42.0784 408.202 42.0784V41.7084C408.202 40.8834 408.057 40.2753 407.769 39.8834C408.861 35.6584 410.087 33.1028 411.447 32.2159C411.447 34.4009 411.581 35.4934 411.849 35.4934L411.447 36.2359V51.2009L411.849 51.9109L411.044 52.2834H402.884C402.616 52.2834 402.482 52.4066 402.482 52.6534L401.647 52.2834H396.359L394.319 51.9109V52.2834L393.514 51.9109C392.361 51.9109 388.414 52.1584 381.674 52.6534L381.272 51.9109C381.272 51.6847 382.901 50.2309 386.157 47.5509V37.3184C386.157 32.5984 386.569 28.4659 387.394 24.9209C386.569 22.3228 386.157 20.1272 386.157 18.3334V12.4909L381.674 8.50343V7.76093Z" fill="#F8F2EA"/>
<path d="M427.03 7.91592H435.377C437.562 17.6859 439.252 24.8178 440.447 29.3109L440.107 30.0209V30.7634C440.107 30.9903 440.22 31.1034 440.447 31.1034L440.107 31.8459V33.2984C440.107 34.2672 440.952 35.8334 442.642 37.9984C443.838 44.7584 444.798 48.1384 445.52 48.1384C448.178 50.3453 449.507 51.5622 449.507 51.7884C449.507 52.2616 449.27 52.4984 448.795 52.4984C446.136 52.2516 444.807 51.8909 444.807 51.4159C443.92 51.8909 442.952 52.1284 441.902 52.1284H436.83C436.295 52.1284 435.81 52.2516 435.377 52.4984C434.965 52.2516 434.481 52.1284 433.925 52.1284H431.76V51.4159C432.235 51.4159 433.317 50.3234 435.007 48.1384C435.007 47.1284 434.77 45.9228 434.295 44.5209C434.77 44.5209 435.007 44.2847 435.007 43.8109C434.285 43.8109 433.687 42.1209 433.212 38.7409H425.607C424.143 44.4297 423.412 47.6859 423.412 48.5109C423.722 48.5109 424.691 49.4797 426.32 51.4159V52.1284H422.702C421.692 52.1284 420.723 52.2516 419.795 52.4984C418.868 52.2516 417.9 52.1284 416.89 52.1284H413.272V51.4159C416.528 49.1909 418.58 45.8109 419.425 41.2759L426.69 12.6134V12.2734C424.751 10.6872 423.782 9.5953 423.782 8.99842C425.37 8.27717 426.453 7.91592 427.03 7.91592ZM429.595 22.7859C428.131 28.3728 427.4 31.7534 427.4 32.9284C428.37 32.9284 428.855 33.4128 428.855 34.3809L431.76 32.5559L429.935 22.7859H429.595Z" fill="#F8F2EA"/>
<path d="M450.557 7.76093H469.819C469.819 8.04968 468.047 9.61593 464.502 12.4609V16.8184C463.945 16.8184 463.667 16.9428 463.667 17.1909C464.223 25.7859 464.502 31.1034 464.502 33.1434V45.8209C464.583 46.2947 464.85 46.5309 465.304 46.5309H469.819C470.499 46.2628 473.097 40.4709 477.612 29.1559H478.447V44.7384C478.095 47.1503 477.548 48.3559 476.807 48.3559L478.847 51.6334C478.312 51.8603 477.9 51.9734 477.612 51.9734C472.623 51.9734 469.067 52.0966 466.944 52.3434C462.904 52.0966 458.255 51.9734 452.999 51.9734H449.322V51.6334L454.639 46.9034V44.7384C454.639 43.0903 454.783 41.6372 455.072 40.3784C454.783 39.1222 454.639 37.6684 454.639 36.0184V35.6784C454.639 35.4322 454.505 35.3084 454.237 35.3084C454.505 34.9372 454.783 33.3703 455.072 30.6084C454.783 25.1053 454.639 19.9009 454.639 14.9959V13.9134C454.639 13.6872 454.505 13.5734 454.237 13.5734L454.639 12.8309C454.617 12.3978 453.39 11.3153 450.959 9.58343L449.722 8.13093L450.557 7.76093Z" fill="#F8F2EA"/>
<path d="M500.195 38.2159C498.721 36.6497 496.676 33.8772 494.058 29.8984C494.058 29.0934 493.491 28.2484 492.358 27.3634V48.7259C495.018 49.8609 496.348 50.9953 496.348 52.1284H479.96C479.96 50.9953 481.289 49.8609 483.948 48.7259V12.0259L479.403 9.46094V7.76094H486.793C489.884 7.76094 492.533 10.6053 494.738 16.2934L501.573 26.7434V26.7759C502.211 26.1359 502.53 25.5178 502.53 24.9209C508.321 16.1197 513.475 7.90532 517.99 0.278442L519.133 1.14344L518.545 7.08094V25.7559L519.133 30.0209C518.741 30.0209 518.545 30.8772 518.545 32.5884V39.3884C518.545 46.6653 520.06 50.3034 523.09 50.3034V52.0034H506.488V50.3034C508.754 48.5934 510.073 47.7384 510.445 47.7384V27.4559L503.21 38.5234C502.673 39.8834 501.668 39.7809 500.195 38.2159Z" fill="#F8F2EA"/>
<path d="M296.695 2.28882e-05L300.8 7.21177L302.417 11.1956L303.28 11.5688L311.777 26.4963H281.612L296.695 2.28882e-05Z" fill="#F8F2EA"/>
<path d="M281.518 26.6207L283.855 30.7258H283.509L284.775 32.3429L296.6 53.117H281.643L281.269 51.9975L276.294 53.117H266.436L281.518 26.6207Z" fill="#F8F2EA"/>
<path d="M312.12 26.6207L327.202 53.117H297.037L301.286 45.6533L303.785 43.4142L302.292 43.8852L312.12 26.6207Z" fill="#F8F2EA"/>
</svg>
